<?xml version="1.0" encoding="UTF-8"?>
<svg id="Layer_1" data-name="Layer 1" xmlns="http://www.w3.org/2000/svg" viewBox="0 0 1021.06 275.82">
  <defs>
    <style>
      .cls-1, .cls-2 {
        fill: #010101;
      }

      .cls-2 {
        font-family: Aeonik-Regular, Aeonik;
        font-size: 130.01px;
      }

      .cls-3 {
        fill: #bbd977;
      }

      .cls-4 {
        fill: #fff;
      }

      .cls-5 {
        letter-spacing: -.02em;
      }
    </style>
  </defs>
  <g>
    <path class="cls-1" d="M228.92,240.04h-105.6c-28.46,0-51.53-23.07-51.53-51.53v-105.6c0-28.46,23.07-51.53,51.53-51.53h105.6c28.46,0,51.53,23.07,51.53,51.53v105.6c0,28.46-23.07,51.53-51.53,51.53"/>
    <path class="cls-3" d="M252.3,109.21c1.1-.33,2.71-.41,3.78-.04,2.61.91,4.45,15,4.66,18.2,3.86,58.92-49.82,103.21-107.01,86.58-15.6-4.54-38.97-19.88-45.87-34.96-1.93-4.21-1.75-5.36.96-9.12,5.37-7.45,34.82-36.59,42.44-42.48,3.58-2.77,6.08-3.94,10.23-1.21,9.45,6.21,20.88,22.86,30.61,30.63,3.84,3.06,7.22,4.54,11.46.83l48.74-48.43Z"/>
    <path class="cls-4" d="M178.94,217.31c-52.15,4.8-97.71-54.89-85.7-103.28,6.51-26.25,36.21-78.94,53.81-58.27,3.5,4.1,1.97,2.4,14.04,12.1.79.63,9.48,5.93,9.69,6.94,1.51,7.41-7.39,6.23-12.37,7.69-45.93,13.51-52.49,77.03-10.22,99.65,4.26,2.28,11.91,4.24,14.56,7.59"/>
    <path class="cls-1" d="M143.33,69.68c0,3.18-2.58,5.75-5.75,5.75s-5.75-2.58-5.75-5.75,2.58-5.75,5.75-5.75,5.75,2.58,5.75,5.75"/>
  </g>
  <text class="cls-2" transform="translate(342.21 177.58)"><tspan x="0" y="0">CoinG</tspan><tspan class="cls-5" x="363.25" y="0">r</tspan><tspan x="403.69" y="0">aph</tspan></text>
</svg>