<?xml version="1.0" encoding="UTF-8"?>
<svg id="Layer_1" data-name="Layer 1" xmlns="http://www.w3.org/2000/svg" viewBox="0 0 1021.06 275.82">
  <defs>
    <style>
      .cls-1 {
        fill: #010101;
      }

      .cls-2 {
        fill: #bbd977;
      }

      .cls-3 {
        fill: #fff;
        font-family: Aeonik-Regular, Aeonik;
        font-size: 130.01px;
      }

      .cls-4 {
        letter-spacing: -.02em;
      }

      .cls-5 {
        fill: #f3f3f3;
      }
    </style>
  </defs>
  <g>
    <path class="cls-5" d="M229.36,240.04h-108.22c-29.16,0-52.81-23.3-52.81-52.04v-106.66c0-28.74,23.64-52.04,52.81-52.04h108.22c29.16,0,52.81,23.3,52.81,52.04v106.66c0,28.74-23.64,52.04-52.81,52.04"/>
    <path class="cls-2" d="M253.32,107.9c1.12-.34,2.77-.41,3.87-.04,2.68.92,4.57,15.15,4.78,18.39,3.95,59.51-51.06,104.24-109.66,87.44-15.98-4.58-39.93-20.08-47.01-35.31-1.97-4.25-1.8-5.41.98-9.21,5.5-7.53,35.69-36.95,43.49-42.9,3.67-2.8,6.23-3.98,10.49-1.22,9.68,6.28,21.39,23.09,31.37,30.93,3.93,3.09,7.39,4.59,11.74.83l49.95-48.91Z"/>
    <path class="cls-1" d="M178.14,217.08c-53.44,4.84-100.14-55.44-87.83-104.31,6.68-26.51,37.11-79.73,55.15-58.85,3.58,4.15,2.01,2.43,14.38,12.22.81.64,9.72,5.99,9.93,7.01,1.55,7.48-7.58,6.29-12.67,7.76-47.07,13.65-53.79,77.8-10.48,100.65,4.36,2.3,12.21,4.28,14.92,7.66"/>
    <path class="cls-5" d="M141.65,67.97c0,3.21-2.64,5.81-5.89,5.81s-5.89-2.6-5.89-5.81,2.64-5.81,5.89-5.81,5.89,2.6,5.89,5.81"/>
  </g>
  <text class="cls-3" transform="translate(342.21 177.58)"><tspan x="0" y="0">CoinG</tspan><tspan class="cls-4" x="363.25" y="0">r</tspan><tspan x="403.69" y="0">aph</tspan></text>
</svg>