<?xml version="1.0" encoding="UTF-8"?>
<svg id="Layer_1" data-name="Layer 1" xmlns="http://www.w3.org/2000/svg" viewBox="0 0 1000 1000">
  <defs>
    <style>
      .cls-1 {
        fill: #010101;
      }

      .cls-2 {
        fill: #bbd977;
      }

      .cls-3 {
        fill: #fff;
      }
    </style>
  </defs>
  <path class="cls-1" d="M653.42,803.14h-306.84c-82.69,0-149.72-67.03-149.72-149.72v-306.84c0-82.69,67.03-149.72,149.72-149.72h306.84c82.69,0,149.72,67.03,149.72,149.72v306.84c0,82.69-67.03,149.72-149.72,149.72"/>
  <path class="cls-2" d="M721.36,422.99c3.19-.97,7.87-1.19,10.98-.11,7.59,2.64,12.94,43.59,13.55,52.89,11.21,171.2-144.76,299.88-310.93,251.56-45.31-13.18-113.22-57.76-133.29-101.57-5.59-12.22-5.1-15.56,2.79-26.51,15.61-21.66,101.19-106.31,123.32-123.42,10.4-8.04,17.67-11.44,29.73-3.51,27.46,18.06,60.66,66.43,88.94,88.99,11.15,8.9,20.97,13.2,33.29,2.4l141.62-140.72Z"/>
  <path class="cls-3" d="M508.2,737.07c-151.52,13.94-283.91-159.48-249.02-300.08,18.93-76.28,105.22-229.36,156.36-169.31,10.16,11.93,5.71,6.99,40.78,35.14,2.29,1.84,27.55,17.23,28.15,20.16,4.39,21.53-21.48,18.09-35.93,22.34-133.46,39.26-152.51,223.8-29.71,289.54,12.37,6.62,34.6,12.31,42.31,22.04"/>
  <path class="cls-1" d="M404.75,308.12c0,9.23-7.48,16.71-16.71,16.71s-16.71-7.48-16.71-16.71,7.48-16.71,16.71-16.71,16.71,7.48,16.71,16.71"/>
</svg>