<?xml version="1.0" encoding="UTF-8"?>
<svg id="Layer_1" data-name="Layer 1" xmlns="http://www.w3.org/2000/svg" viewBox="0 0 1000 1000">
  <defs>
    <style>
      .cls-1 {
        fill: #010101;
      }

      .cls-2 {
        fill: #bbd977;
      }

      .cls-3 {
        fill: #f3f3f3;
      }
    </style>
  </defs>
  <path class="cls-3" d="M657.3,806.31h-314.6c-84.78,0-153.5-67.73-153.5-151.29v-310.05c0-83.55,68.73-151.29,153.5-151.29h314.6c84.78,0,153.5,67.73,153.5,151.29v310.05c0,83.55-68.73,151.29-153.5,151.29"/>
  <path class="cls-2" d="M726.96,422.18c3.27-.98,8.07-1.2,11.26-.11,7.78,2.67,13.27,44.04,13.89,53.45,11.49,173-148.42,303.02-318.79,254.19-46.46-13.32-116.09-58.36-136.66-102.64-5.74-12.35-5.23-15.73,2.86-26.78,16-21.88,103.75-107.42,126.44-124.72,10.67-8.13,18.12-11.56,30.48-3.55,28.15,18.25,62.19,67.13,91.19,89.92,11.43,8.99,21.5,13.34,34.13,2.42l145.2-142.19Z"/>
  <path class="cls-1" d="M508.4,739.56c-155.36,14.08-291.09-161.16-255.32-303.23,19.41-77.07,107.89-231.77,160.32-171.09,10.41,12.05,5.86,7.06,41.81,35.51,2.35,1.86,28.24,17.41,28.86,20.37,4.5,21.76-22.02,18.28-36.84,22.57-136.84,39.67-156.37,226.15-30.46,292.58,12.69,6.69,35.48,12.44,43.38,22.27"/>
  <path class="cls-3" d="M402.34,306.11c0,9.33-7.67,16.89-17.13,16.89s-17.14-7.56-17.14-16.89,7.67-16.89,17.14-16.89,17.13,7.56,17.13,16.89"/>
</svg>