<svg width="48" height="48" viewBox="0 0 48 48" fill="none" xmlns="http://www.w3.org/2000/svg">
  <defs>
    <linearGradient id="icon-grad" x1="0" y1="0" x2="48" y2="48" gradientUnits="userSpaceOnUse">
      <stop offset="0" stop-color="#5BA3D9"/>
      <stop offset="1" stop-color="#4A8FC4"/>
    </linearGradient>
  </defs>
  <circle cx="24" cy="24" r="24" fill="url(#icon-grad)"/>
  <g transform="translate(5, 5) scale(0.038)">
    <path fill="#ffffff" d="M780.65,772.67l-105.56-182.38-100.43,172.63c-11.91,20.48-37.52,28.2-59.45,27.23-22.98-1.02-42.15-15.65-54.59-37.12l-94.36-162.92-106.15,183.94c-8.81,15.27-27.69,19.9-44.1,13.19-11.93-4.88-26.01-25.85-16.24-42.83L490.8,239.18c10.42-18.1,29.42-22.56,45.33-14.49,16.74,8.5,22.3,28.35,13.79,46.49l-144.59,251.04,115.47,199.92,124.19-215.04c5.94-9.35,16.03-17.71,24.15-18.41,12.43-1.07,26.86,2.78,33.12,13.63l135.4,234.72c9.86,17.1,7.99,37.75-7.34,47.6-17.04,10.95-38.96,6.52-49.67-11.98Z"/>
    <path fill="#ffffff" d="M571.17,501.72l-36.17-73.24,33.07-55.54c9.4-16.31,26.69-21.79,42.99-15.58,14.71,5.61,27.6,27.43,17.4,45.15l-57.29,99.21Z"/>
    <path fill="#ffffff" d="M562.13,382.38l62.39,27.12-58.1,99.93c-9.47,16.27-26.78,21.68-43.05,15.4-14.69-5.66-27.49-27.54-17.22-45.21l55.99-97.24Z"/>
  </g>
</svg>
